<svg width="26" height="26" viewBox="0 0 26 26" fill="none" xmlns="http://www.w3.org/2000/svg">
<g clip-path="url(#clip0)">
<path d="M5.07706 2.28233H7.85236V1.45607C7.85236 1.10913 7.99343 0.793932 8.2223 0.56501C8.44975 0.337561 8.76495 0.195068 9.11336 0.195068C9.46024 0.195068 9.77554 0.337611 10.0029 0.56501C10.2318 0.793932 10.3743 1.10913 10.3743 1.45607V2.28233H13.1482V1.45607C13.1482 1.10913 13.2907 0.793932 13.5181 0.56501C13.747 0.337561 14.0622 0.195068 14.4091 0.195068C14.7561 0.195068 15.0713 0.337611 15.3002 0.56501C15.5291 0.793932 15.6702 1.10913 15.6702 1.45607V2.28233H18.4454V1.46612C18.4454 1.11924 18.5865 0.803936 18.8154 0.575064C19.0428 0.347666 19.358 0.205174 19.7065 0.205174C20.0534 0.205174 20.3686 0.347666 20.5961 0.575064C20.825 0.803936 20.9675 1.11924 20.9675 1.46612V2.28233H21.3849C21.9737 2.28233 22.5077 2.52268 22.8949 2.90851C23.2821 3.29572 23.5225 3.82979 23.5225 4.41844V8.38715C23.5225 8.59733 23.3512 8.76862 23.1411 8.76862C22.9309 8.76862 22.7596 8.59733 22.7596 8.38715V7.2888H12.6242C12.4126 7.2888 12.2427 7.11894 12.2427 6.90881C12.2427 6.6972 12.4126 6.52734 12.6242 6.52734H22.7596V4.41849C22.7596 4.03992 22.6056 3.69735 22.3565 3.44827C22.106 3.19781 21.7634 3.0438 21.3848 3.0438H20.9674V3.85858C20.9674 4.20547 20.8249 4.52072 20.596 4.74959C20.3685 4.97846 20.0533 5.11953 19.7064 5.11953C19.358 5.11953 19.0427 4.97846 18.8153 4.74959C18.5864 4.52072 18.4453 4.20547 18.4453 3.85858V3.0438H15.6701V3.84847C15.6701 4.19541 15.529 4.51061 15.3001 4.73953C15.0712 4.96698 14.756 5.10947 14.409 5.10947C14.0621 5.10947 13.7469 4.96693 13.518 4.73953C13.2906 4.51061 13.1481 4.19541 13.1481 3.84847V3.0438H10.3742V3.84847C10.3742 4.19541 10.2317 4.51061 10.0028 4.73953C9.77539 4.96698 9.46014 5.10947 9.11325 5.10947C8.76489 5.10947 8.44965 4.96693 8.2222 4.73953C7.99332 4.51061 7.85225 4.19541 7.85225 3.84847V3.0438H5.07706V3.84847C5.07706 4.19541 4.93452 4.51061 4.70712 4.73953C4.47825 4.96698 4.163 5.10947 3.81606 5.10947C3.46917 5.10947 3.15387 4.96693 2.925 4.73953C2.69755 4.51061 2.55506 4.19541 2.55506 3.84847V3.0438H2.13616C1.75901 3.0438 1.41497 3.19781 1.16599 3.44827C0.916957 3.6973 0.761465 4.03987 0.761465 4.41849V6.52739H10.8984C11.1086 6.52739 11.2798 6.69725 11.2798 6.90886C11.2798 7.11904 11.1086 7.28885 10.8984 7.28885H0.761516V18.5355C0.761516 18.7457 0.591652 18.9156 0.38152 18.9156C0.171336 18.9156 5.07813e-05 18.7457 5.07813e-05 18.5355V4.41849C0 3.82979 0.240398 3.29572 0.627605 2.90851C1.01481 2.52268 1.54888 2.28233 2.13616 2.28233H2.55506V1.45607C2.55506 1.10913 2.69613 0.793932 2.925 0.56501C3.15387 0.337561 3.46917 0.195068 3.81606 0.195068C4.163 0.195068 4.4782 0.337611 4.70712 0.56501C4.93457 0.793932 5.07706 1.10913 5.07706 1.45607V2.28233ZM20.255 17.086C20.255 16.8758 20.4249 16.706 20.635 16.706C20.8466 16.706 21.0165 16.8758 21.0165 17.086V20.44C21.0165 20.5436 20.9762 20.6357 20.9085 20.7049L18.5809 23.4427C18.4455 23.604 18.2066 23.6241 18.0454 23.4874C17.8856 23.3521 17.8654 23.1132 18.0007 22.9519L20.255 20.3018V17.086ZM17.9331 16.7131C17.7618 16.8369 17.5243 16.7981 17.402 16.6282C17.2782 16.4583 17.3156 16.2209 17.4869 16.0971C17.936 15.7703 18.4384 15.5126 18.9796 15.337C19.5022 15.1671 20.0593 15.075 20.6351 15.075C21.3908 15.075 22.1091 15.2305 22.7598 15.5126V10.1117C22.7598 9.9015 22.9311 9.73164 23.1413 9.73164C23.3515 9.73164 23.5227 9.90155 23.5227 10.1117V15.9171C23.8509 16.1273 24.1547 16.372 24.4296 16.6469C25.3998 17.6172 26 18.9587 26 20.44C26 21.9212 25.3998 23.2628 24.4295 24.233C23.4578 25.2047 22.1177 25.805 20.635 25.805C19.1538 25.805 17.8136 25.2047 16.842 24.233C16.4735 23.8645 16.1582 23.4427 15.9092 22.9792H1.98072C1.43518 22.9792 0.939961 22.7576 0.581547 22.3991C0.223133 22.0393 0 21.5455 0 20.9999V20.2601C0 20.0499 0.171336 19.8801 0.381469 19.8801C0.591602 19.8801 0.761465 20.0499 0.761465 20.2601V20.9999C0.761465 21.3339 0.899641 21.6391 1.11993 21.8593C1.34159 22.081 1.64536 22.2178 1.98072 22.2178H15.5724C15.3766 21.6621 15.2701 21.0634 15.2701 20.44C15.2701 19.893 15.3536 19.3632 15.5076 18.8624C15.6674 18.3456 15.902 17.8619 16.1986 17.4257C16.3166 17.2515 16.5541 17.2069 16.7268 17.325C16.8995 17.443 16.9441 17.6805 16.8261 17.8533C16.5713 18.229 16.3698 18.6435 16.233 19.0855C16.1035 19.5116 16.033 19.9665 16.033 20.44C16.033 21.7111 16.5483 22.8627 17.3803 23.6947C18.2138 24.5282 19.3639 25.0435 20.635 25.0435C21.9061 25.0435 23.0576 24.5282 23.8911 23.6947C24.7232 22.8627 25.2385 21.7111 25.2385 20.44C25.2385 19.169 24.7232 18.0174 23.8911 17.1854C23.0576 16.3519 21.9061 15.8366 20.635 15.8366C20.1384 15.8366 19.6605 15.9158 19.2142 16.0597C18.7507 16.2108 18.3189 16.4325 17.9331 16.7131ZM16.2662 8.90537H20.7631C20.9733 8.90537 21.1447 9.07524 21.1447 9.28537V13.7824C21.1447 13.994 20.9733 14.1638 20.7631 14.1638H16.2662C16.056 14.1638 15.8847 13.994 15.8847 13.7824V9.28537C15.8848 9.07524 16.0561 8.90537 16.2662 8.90537ZM20.3831 9.66684H16.6477V13.4024H20.3831V9.66684ZM9.51209 15.3428H14.0091C14.2207 15.3428 14.3905 15.5141 14.3905 15.7243V20.2212C14.3905 20.4314 14.2207 20.6027 14.0091 20.6027H9.51209C9.30191 20.6027 9.13209 20.4314 9.13209 20.2212V15.7243C9.13209 15.5141 9.30196 15.3428 9.51209 15.3428ZM13.6291 16.1057H9.89361V19.8412H13.6291V16.1057ZM9.51209 8.90537H14.0091C14.2207 8.90537 14.3905 9.07524 14.3905 9.28537V13.7824C14.3905 13.994 14.2207 14.1638 14.0091 14.1638H9.51209C9.30191 14.1638 9.13209 13.994 9.13209 13.7824V9.28537C9.13209 9.07524 9.30196 8.90537 9.51209 8.90537ZM13.6291 9.66684H9.89361V13.4024H13.6291V9.66684ZM2.75803 15.3428H7.25639C7.46657 15.3428 7.63643 15.5141 7.63643 15.7243V20.2212C7.63643 20.4314 7.46657 20.6027 7.25639 20.6027H2.75803C2.54785 20.6027 2.37804 20.4314 2.37804 20.2212V15.7243C2.37804 15.5141 2.5479 15.3428 2.75803 15.3428ZM6.87497 16.1057H3.1395V19.8412H6.87497V16.1057ZM2.75803 8.90537H7.25639C7.46657 8.90537 7.63643 9.07524 7.63643 9.28537V13.7824C7.63643 13.994 7.46657 14.1638 7.25639 14.1638H2.75803C2.54785 14.1638 2.37804 13.994 2.37804 13.7824V9.28537C2.37804 9.07524 2.5479 8.90537 2.75803 8.90537ZM6.87497 9.66684H3.1395V13.4024H6.87497V9.66684ZM19.7066 0.968061C19.5698 0.968061 19.4445 1.02417 19.3539 1.11487C19.2632 1.20556 19.207 1.32942 19.207 1.46612V2.66238V3.85863C19.207 3.99533 19.2632 4.12056 19.3539 4.21126C19.4445 4.30195 19.5698 4.35812 19.7066 4.35812C19.8433 4.35812 19.9671 4.302 20.0578 4.21126C20.1485 4.12056 20.2046 3.99533 20.2046 3.85863V2.66238V1.46612C20.2046 1.32942 20.1485 1.20556 20.0578 1.11487C19.9671 1.02422 19.8433 0.968061 19.7066 0.968061ZM4.16879 1.10339C4.07809 1.01275 3.95286 0.956584 3.81611 0.956584C3.67941 0.956584 3.55413 1.0127 3.46343 1.10339C3.37274 1.19409 3.31662 1.31931 3.31662 1.45607V2.66238V3.84853C3.31662 3.98528 3.37274 4.11051 3.46343 4.2012C3.55413 4.29185 3.67941 4.34801 3.81611 4.34801C3.95286 4.34801 4.07809 4.2919 4.16879 4.2012C4.25948 4.11051 4.31559 3.98528 4.31559 3.84853V2.66238V1.45607C4.31559 1.31926 4.25943 1.19409 4.16879 1.10339ZM9.11341 0.956584C8.97518 0.956584 8.85143 1.0127 8.76073 1.10339C8.67004 1.19409 8.61392 1.31931 8.61392 1.45607V2.66238V3.84853C8.61392 3.98528 8.67004 4.11051 8.76073 4.2012C8.85143 4.29185 8.97523 4.34801 9.11341 4.34801C9.25011 4.34801 9.37391 4.2919 9.46461 4.2012C9.5553 4.11051 9.61147 3.98528 9.61147 3.84853V2.66238V1.45607C9.61147 1.31931 9.55536 1.19409 9.46461 1.10339C9.37391 1.0127 9.25011 0.956584 9.11341 0.956584ZM14.4092 0.956584C14.2725 0.956584 14.1473 1.0127 14.0566 1.10339C13.9659 1.19409 13.9097 1.31931 13.9097 1.45607V2.66238V3.84853C13.9097 3.98528 13.9659 4.11051 14.0566 4.2012C14.1473 4.29185 14.2725 4.34801 14.4092 4.34801C14.546 4.34801 14.6712 4.2919 14.7619 4.2012C14.8526 4.11051 14.9088 3.98528 14.9088 3.84853V2.66238V1.45607C14.9088 1.31931 14.8527 1.19409 14.7619 1.10339C14.6712 1.0127 14.546 0.956584 14.4092 0.956584Z" fill="black"/>
</g>
<defs>
<clipPath id="clip0">
<rect width="26" height="26" fill="white"/>
</clipPath>
</defs>
</svg>
