<svg width="61" height="61" viewBox="0 0 61 61" fill="none" xmlns="http://www.w3.org/2000/svg">
<path d="M52.0668 8.93316C46.306 3.1726 38.6468 0 30.5 0C22.3532 0 14.694 3.1726 8.93316 8.93316C3.1726 14.694 0 22.3532 0 30.5C0 38.6468 3.1726 46.306 8.93316 52.0668C14.694 57.8274 22.3532 61 30.5 61C38.6468 61 46.306 57.8274 52.0668 52.0668C57.8274 46.306 61 38.6468 61 30.5C61 22.3532 57.8274 14.694 52.0668 8.93316ZM50.8031 50.8031C46.7415 54.8647 41.6774 57.5593 36.1688 58.6565V39.0339H40.2599C41.1097 39.0339 41.8472 38.4581 42.0533 37.6337L43.486 31.9034C43.625 31.3472 43.5023 30.7691 43.1495 30.3174C42.7967 29.8656 42.2657 29.6064 41.6925 29.6064H35.2754C34.7819 29.6064 34.3818 30.0065 34.3818 30.5C34.3818 30.9935 34.7819 31.3936 35.2754 31.3936H41.6925C41.7015 31.3936 41.7225 31.3936 41.741 31.4173C41.7595 31.4409 41.7544 31.4613 41.7522 31.47L40.3197 37.2004C40.3128 37.2278 40.2882 37.2469 40.26 37.2469H35.2754C34.7819 37.2469 34.3818 37.647 34.3818 38.1405V58.9524C33.1054 59.1237 31.8096 59.2129 30.5 59.2129C22.8304 59.2129 15.6201 56.2263 10.1969 50.8031C4.77373 45.3799 1.78711 38.1696 1.78711 30.5C1.78711 22.8304 4.77373 15.6201 10.1969 10.1969C15.6201 4.77373 22.8304 1.78711 30.5 1.78711C38.1696 1.78711 45.3799 4.77373 50.8031 10.1969C56.2263 15.6201 59.2129 22.8304 59.2129 30.5C59.2129 38.1696 56.2263 45.3799 50.8031 50.8031Z" fill="black"/>
<path d="M41.9605 11.4604H36.2302C29.9447 11.4604 24.8312 16.5741 24.8312 22.8596V29.6064H19.0394C18.02 29.6064 17.1908 30.4356 17.1908 31.455V37.1853C17.1908 38.2047 18.02 39.0339 19.0394 39.0339H24.8312V55.3312C24.8312 55.8247 25.2312 56.2248 25.7247 56.2248C26.2182 56.2248 26.6183 55.8247 26.6183 55.3312V38.1403C26.6183 37.6468 26.2182 37.2468 25.7247 37.2468H19.0394C19.0054 37.2468 18.9779 37.2192 18.9779 37.1853V31.455C18.9779 31.421 19.0054 31.3935 19.0394 31.3935H25.7247C26.2182 31.3935 26.6183 30.9934 26.6183 30.5V22.8596C26.6183 17.5595 30.9302 13.2476 36.2302 13.2476H41.9605C41.9944 13.2476 42.022 13.2751 42.022 13.309V19.0393C42.022 19.0733 41.9944 19.1008 41.9605 19.1008H38.1404C36.0678 19.1008 34.3817 20.7869 34.3817 22.8595V26.6796C34.3817 27.1731 34.7818 27.5731 35.2753 27.5731C35.7688 27.5731 36.1688 27.1731 36.1688 26.6796V22.8595C36.1688 21.7723 37.0532 20.8879 38.1404 20.8879H41.9605C42.9799 20.8879 43.8091 20.0587 43.8091 19.0393V13.309C43.8091 12.2898 42.9799 11.4604 41.9605 11.4604Z" fill="black"/>
</svg>
