<svg width="57" height="57" viewBox="0 0 57 57" fill="none" xmlns="http://www.w3.org/2000/svg">
<path d="M47.2409 0H9.75914C4.37798 0 0 4.37798 0 9.75914V47.2409C0 52.622 4.37798 57 9.75914 57H47.2409C52.622 57 57 52.622 57 47.2409V9.75914C57 4.37798 52.622 0 47.2409 0ZM55.3301 47.2409C55.3301 51.7012 51.7012 55.3301 47.2409 55.3301H9.75914C5.29877 55.3301 1.66992 51.7012 1.66992 47.2409V9.75914C1.66992 5.29877 5.29877 1.66992 9.75914 1.66992H47.2409C51.7012 1.66992 55.3301 5.29877 55.3301 9.75914V47.2409Z" fill="black"/>
<path d="M28.5 12.4941C19.6742 12.4941 12.4939 19.6745 12.4939 28.5002C12.4939 37.326 19.6742 44.5063 28.5 44.5063C37.3258 44.5063 44.5061 37.326 44.5061 28.5002C44.5061 19.6745 37.3258 12.4941 28.5 12.4941ZM28.5 42.8364C20.595 42.8364 14.1638 36.4052 14.1638 28.5002C14.1638 20.5953 20.595 14.1641 28.5 14.1641C36.405 14.1641 42.8362 20.5953 42.8362 28.5002C42.8362 36.4052 36.405 42.8364 28.5 42.8364Z" fill="black"/>
<path d="M45.4561 7.13965C43.0273 7.13965 41.0514 9.11561 41.0514 11.5442C41.0514 13.973 43.0273 15.9489 45.4561 15.9489C47.8848 15.9489 49.8606 13.973 49.8606 11.5442C49.8606 9.1155 47.8848 7.13965 45.4561 7.13965ZM45.4561 14.279C43.9481 14.279 42.7213 13.0522 42.7213 11.5442C42.7213 10.0363 43.9481 8.80957 45.4561 8.80957C46.964 8.80957 48.1907 10.0364 48.1907 11.5442C48.1907 13.0521 46.964 14.279 45.4561 14.279Z" fill="black"/>
<path d="M21.5179 21.5177C24.9357 18.0999 30.2746 17.6546 34.2125 20.4589C34.588 20.7263 35.1094 20.6388 35.377 20.2631C35.6445 19.8874 35.5568 19.3661 35.1811 19.0986C32.9833 17.5335 30.2857 16.7873 27.5859 16.9971C24.8527 17.2095 22.2783 18.3956 20.3371 20.337C18.3959 22.2782 17.2098 24.8526 16.9972 27.5857C16.7874 30.2857 17.5337 32.9831 19.0987 35.1809C19.2615 35.4097 19.5185 35.5316 19.7796 35.5316C19.9471 35.5316 20.1163 35.4813 20.2632 35.3768C20.6388 35.1092 20.7265 34.5879 20.459 34.2123C17.6549 30.2742 18.1002 24.9355 21.5179 21.5177Z" fill="black"/>
<path d="M36.7366 21.6232C36.361 21.8907 36.2733 22.412 36.5408 22.7877C39.3451 26.7256 38.8997 32.0644 35.482 35.4822C32.0642 38.8998 26.7254 39.3453 22.7874 36.541C22.4117 36.2736 21.8905 36.3611 21.6229 36.7369C21.3554 37.1125 21.4431 37.6338 21.8188 37.9013C23.7735 39.2933 26.1232 40.0375 28.5187 40.0375C28.8165 40.0375 29.1154 40.0259 29.414 40.0028C32.1472 39.7902 34.7216 38.6043 36.6627 36.6629C38.6039 34.7217 39.79 32.1473 40.0026 29.4141C40.2124 26.7141 39.4662 24.0167 37.9011 21.8189C37.6336 21.4434 37.1124 21.3556 36.7366 21.6232Z" fill="black"/>
</svg>
